<svg width="40" height="40" fill="none" xmlns="http://www.w3.org/2000/svg"><defs><clipPath id="clip22904_2007"><rect id="facebook 1" rx="0" width="31" height="31" transform="translate(4.5 .5)" fill="#fff" fill-opacity="0"/></clipPath><filter id="filter_22904_2007_dd" x="0" y="0" width="40" height="40" filterUnits="userSpaceOnUse" color-interpolation-filters="sRGB"><feFlood flood-opacity="0" result="BackgroundImageFix"/><feColorMatrix in="SourceAlpha" values="0 0 0 0 0 0 0 0 0 0 0 0 0 0 0 0 0 0 127 0" result="hardAlpha"/><feOffset dy="4"/><feGaussianBlur stdDeviation="1.333"/><feComposite in2="hardAlpha" operator="out" k2="-1" k3="1"/><feColorMatrix values="0 0 0 0 0 0 0 0 0 0 0 0 0 0 0 0 0 0 0.25 0"/><feBlend in2="BackgroundImageFix" result="effect_dropShadow_1"/><feBlend in="SourceGraphic" in2="effect_dropShadow_1" result="shape"/></filter></defs><g filter="url('#filter_22904_2007_dd')"><rect id="facebook 1" rx="0" width="31" height="31" transform="translate(4.5 .5)" fill="#FFF" fill-opacity="0"/><g clip-path="url('#clip22904_2007')"><path id="Vector" d="M26.66 4.66c0-.17-.07-.34-.19-.47A.702.702 0 0 0 26 4h-3.34A6.343 6.343 0 0 0 16 10v3.59h-3.34a.665.665 0 0 0-.66.67v3.47a.665.665 0 0 0 .66.67H16v8.93c0 .17.07.34.19.47.13.12.29.2.47.2h4c.18 0 .35-.08.47-.2.13-.13.2-.3.2-.47V18.4h3.49c.15 0 .3-.05.41-.14a.66.66 0 0 0 .25-.36l.96-3.47c.02-.09.02-.2 0-.3a.66.66 0 0 0-.12-.27.74.74 0 0 0-.23-.2.947.947 0 0 0-.29-.07h-4.47V10c.03-.34.19-.64.43-.86.25-.23.57-.35.9-.34H26a.668.668 0 0 0 .66-.67V4.66Z" fill="#F2F6FA" fill-opacity="1" fill-rule="nonzero"/></g></g></svg>