<svg width="32" height="32" fill="none" xmlns="http://www.w3.org/2000/svg"><defs><clipPath id="clip22904_2017"><rect id="instagram" rx="0" width="31" height="31" transform="translate(.5 .5)" fill="#fff" fill-opacity="0"/></clipPath></defs><g clip-path="url('#clip22904_2017')"><path id="Vector" d="M16 9.84c-3.41 0-6.15 2.75-6.15 6.16 0 3.4 2.74 6.15 6.15 6.15 3.4 0 6.15-2.75 6.15-6.15 0-3.41-2.75-6.16-6.15-6.16ZM16 20c-2.2 0-4-1.8-4-4a3.999 3.999 0 1 1 4 4Zm7.83-10.41c0 .8-.64 1.43-1.43 1.43-.8 0-1.43-.64-1.43-1.43a1.43 1.43 0 1 1 2.86 0Zm4.08 1.46c-.09-1.93-.53-3.63-1.94-5.03-1.4-1.41-3.1-1.84-5.03-1.94-1.98-.11-7.91-.11-9.89 0-1.92.09-3.63.53-5.03 1.93-1.41 1.4-1.85 3.11-1.94 5.03-.11 1.98-.11 7.92 0 9.9.09 1.93.53 3.63 1.94 5.03 1.4 1.41 3.1 1.84 5.03 1.94 1.98.11 7.91.11 9.89 0 1.93-.09 3.63-.53 5.03-1.94 1.4-1.4 1.85-3.1 1.94-5.03.11-1.98.11-7.91 0-9.89Zm-2.56 12.02a4.057 4.057 0 0 1-2.28 2.28c-1.58.63-5.32.48-7.07.48s-5.5.14-7.08-.48a4.087 4.087 0 0 1-2.28-2.28c-.62-1.58-.48-5.33-.48-7.07 0-1.75-.14-5.5.48-7.08a4.057 4.057 0 0 1 2.28-2.28c1.58-.63 5.33-.48 7.08-.48s5.5-.14 7.07.48c1.05.42 1.86 1.23 2.28 2.28.63 1.58.48 5.33.48 7.08 0 1.74.15 5.5-.48 7.07Z" fill="#F2F6FA" fill-opacity="1" fill-rule="nonzero"/></g></svg>