<svg width="32" height="32" fill="none" xmlns="http://www.w3.org/2000/svg"><defs><clipPath id="clip22904_2012"><rect id="twitter 1" rx="0" width="31" height="31" transform="translate(.5 .5)" fill="#fff" fill-opacity="0"/></clipPath></defs><rect id="twitter 1" rx="0" width="31" height="31" transform="translate(.5 .5)" fill="#FFF" fill-opacity="0"/><g clip-path="url('#clip22904_2012')"><path id="Vector" d="M10.77 26.66c1.97.07 3.93-.26 5.78-.97 1.84-.7 3.52-1.77 4.94-3.14 1.42-1.37 2.56-3.01 3.33-4.82.78-1.81 1.19-3.76 1.2-5.73.9-1.12 1.58-2.41 1.98-3.79.02-.11.02-.23-.01-.33a.61.61 0 0 0-.19-.28.672.672 0 0 0-.3-.13.61.61 0 0 0-.33.06 2.504 2.504 0 0 1-2.88-.51c-.47-.51-1.04-.92-1.67-1.21-.63-.29-1.31-.45-2-.48-.7-.02-1.39.1-2.04.35-.64.25-1.23.63-1.73 1.12-.68.66-1.18 1.48-1.45 2.39-.27.91-.3 1.88-.08 2.81-4.47.26-7.54-1.86-9.99-4.76a.566.566 0 0 0-.61-.17c-.1.03-.2.1-.27.18-.07.09-.11.19-.12.31-.47 2.59-.13 5.26.96 7.66 1.1 2.39 2.9 4.39 5.17 5.74A9.01 9.01 0 0 1 4.5 24c-.12.02-.24.08-.33.16-.09.09-.14.21-.16.33-.02.12 0 .25.05.36.06.11.14.21.26.27 2 1 4.21 1.53 6.45 1.54Z" fill="#F2F6FA" fill-opacity="1" fill-rule="nonzero"/></g></svg>